<?xml version="1.0" standalone="no"?>
<!DOCTYPE svg PUBLIC "-//W3C//DTD SVG 20010904//EN"
 "http://www.w3.org/TR/2001/REC-SVG-20010904/DTD/svg10.dtd">
<svg version="1.0" xmlns="http://www.w3.org/2000/svg"
 width="420.000000pt" height="594.000000pt" viewBox="0 0 420.000000 594.000000"
 preserveAspectRatio="xMidYMid meet">

<g transform="translate(0.000000,594.000000) scale(0.100000,-0.100000)"
fill="#000000" stroke="none">
<path d="M1489 3268 c-19 -29 -52 -73 -74 -97 -36 -40 -38 -43 -15 -36 28 8
43 25 99 105 53 78 54 80 38 80 -8 0 -30 -24 -48 -52z"/>
<path d="M1580 3287 c-34 -26 -46 -43 -56 -82 -14 -56 -12 -65 14 -58 26 6 45
79 25 98 -12 12 -10 16 15 29 26 13 61 46 50 46 -3 0 -25 -15 -48 -33z"/>
<path d="M1860 3305 c0 -9 -9 -40 -19 -70 -19 -52 -19 -55 -2 -55 14 0 23 15
35 58 20 72 20 82 1 82 -8 0 -15 -7 -15 -15z"/>
<path d="M1937 3296 c3 -16 -2 -28 -14 -37 -18 -13 -18 -17 -6 -46 9 -23 20
-33 34 -33 l21 0 -21 36 -21 36 22 18 c19 15 20 20 9 34 -19 23 -29 20 -24 -8z"/>
<path d="M2033 3282 c-2 -20 -5 -52 -8 -69 -5 -28 -3 -33 13 -33 15 0 21 10
26 46 10 76 8 94 -11 94 -14 0 -19 -9 -20 -38z"/>
<path d="M2278 3288 c4 -27 6 -29 12 -14 6 17 13 11 49 -37 23 -31 44 -57 46
-57 17 0 -1 45 -36 89 -48 60 -78 68 -71 19z"/>
<path d="M2410 3305 c0 -8 4 -15 9 -15 5 0 17 -29 26 -65 15 -55 21 -65 40
-65 22 0 22 0 -9 80 -22 57 -36 80 -48 80 -10 0 -18 -7 -18 -15z"/>
<path d="M1732 3298 c-7 -7 -12 -38 -12 -70 0 -51 2 -58 20 -58 18 0 20 7 20
58 0 65 -9 89 -28 70z"/>
<path d="M2122 3288 c2 -13 20 -32 48 -48 32 -19 44 -32 42 -45 -3 -16 -2 -17
12 -6 30 25 19 51 -30 72 -25 11 -48 27 -51 35 -8 22 -25 16 -21 -8z"/>
<path d="M2560 3300 c1 -25 133 -163 153 -159 13 3 -3 25 -68 89 -47 46 -85
78 -85 70z"/>
<path d="M2292 3200 c0 -19 2 -27 5 -17 2 9 2 25 0 35 -3 9 -5 1 -5 -18z"/>
<path d="M1845 3103 c-18 -3 -20 -13 -23 -86 -2 -98 -11 -215 -18 -239 -5 -15
2 -18 43 -18 l48 0 0 175 c0 188 3 179 -50 168z"/>
<path d="M1992 3077 c-14 -15 -22 -36 -22 -59 0 -37 18 -58 113 -131 45 -34
56 -70 32 -97 -22 -24 -14 -25 26 -5 39 21 53 57 38 102 -8 25 -31 49 -84 89
-76 55 -95 84 -75 109 20 24 -5 17 -28 -8z"/>
<path d="M2138 3075 c9 -11 18 -22 19 -24 2 -2 3 7 3 20 0 18 -5 25 -20 25
-18 0 -18 -1 -2 -21z"/>
<path d="M2246 3079 c-52 -41 -29 -97 73 -171 31 -23 62 -49 68 -57 20 -25 11
-64 -17 -79 l-25 -14 30 7 c67 15 94 75 59 134 -9 15 -47 48 -85 75 -68 46
-88 77 -75 111 7 20 4 19 -28 -6z"/>
<path d="M2380 3082 c14 -11 27 -16 29 -11 4 13 2 15 -29 24 l-25 8 25 -21z"/>
<path d="M1583 3045 l-20 -45 29 -108 c15 -59 25 -116 22 -126 -5 -16 -3 -18
17 -13 13 4 38 7 56 7 l32 0 -13 33 c-8 17 -31 92 -51 165 -21 72 -41 132 -45
132 -4 0 -16 -20 -27 -45z"/>
<path d="M2572 3043 c-8 -38 -8 -51 3 -63 23 -26 107 -209 100 -220 -4 -6 6
-10 23 -10 16 0 44 -3 62 -7 l33 -6 -25 34 c-14 19 -58 98 -99 176 -41 79 -77
143 -80 143 -3 0 -11 -21 -17 -47z"/>
<path d="M2800 3075 c0 -11 292 -354 306 -359 8 -3 14 -4 14 -3 0 1 -9 30 -19
64 -16 54 -33 79 -126 183 -97 109 -111 120 -141 120 -19 0 -34 -2 -34 -5z"/>
<path d="M1254 2905 c44 -91 86 -165 92 -165 7 0 17 26 22 59 l11 59 -57 106
-57 105 -46 1 -45 0 80 -165z"/>
<path d="M1074 3045 c11 -8 23 -20 27 -26 3 -6 9 1 11 15 5 24 2 26 -26 26
-29 -1 -30 -1 -12 -15z"/>
<path d="M942 3043 c-18 -2 -30 -8 -27 -12 6 -10 -83 -322 -97 -338 -8 -10 0
-12 38 -7 27 4 49 7 49 8 1 1 18 73 40 161 21 88 40 168 43 178 2 9 0 16 -4
15 -5 0 -24 -3 -42 -5z"/>
<path d="M720 3030 c0 -5 5 -10 10 -10 17 0 11 -58 -9 -98 -11 -21 -31 -44
-45 -51 -18 -10 -23 -18 -17 -30 5 -9 4 -47 -2 -84 -12 -80 -2 -98 51 -90 l32
5 0 84 c0 76 -2 84 -22 95 -21 11 -20 13 21 32 64 30 103 107 69 134 -20 16
-88 26 -88 13z"/>
<path d="M3155 3008 c-24 -28 -27 -38 -22 -79 8 -64 47 -137 97 -183 47 -42
77 -56 125 -56 43 0 63 8 75 30 9 16 6 18 -29 13 -83 -11 -169 75 -194 192
-10 49 -9 60 5 86 17 29 17 29 -7 29 -14 0 -34 -13 -50 -32z"/>
<path d="M3419 3023 c24 -41 122 -335 117 -348 -3 -10 1 -15 12 -15 9 0 33 -3
54 -6 l36 -6 -62 163 c-87 229 -84 223 -129 227 -34 3 -37 1 -28 -15z"/>
<path d="M625 3023 c-11 -2 -30 -6 -43 -9 -13 -2 -20 -8 -18 -13 5 -8 -101
-309 -124 -352 -12 -22 -3 -23 63 -13 32 6 37 10 37 34 0 15 7 47 16 71 44
121 100 289 95 288 -3 -1 -15 -3 -26 -6z"/>
<path d="M3301 3028 c2 -2 16 -14 31 -27 26 -22 27 -23 21 -2 -3 11 -9 19 -13
16 -5 -3 -11 -1 -15 5 -3 5 -11 10 -17 10 -6 0 -9 -1 -7 -2z"/>
<path d="M3585 3008 c11 -6 30 -20 43 -32 22 -20 23 -20 16 -1 -9 27 -33 45
-58 45 -21 -1 -21 -1 -1 -12z"/>
<path d="M1040 2890 c0 -5 5 -10 10 -10 6 0 10 5 10 10 0 6 -4 10 -10 10 -5 0
-10 -4 -10 -10z"/>
<path d="M3660 2841 c0 -5 7 -11 14 -14 10 -4 13 -1 9 9 -6 15 -23 19 -23 5z"/>
<path d="M1960 2812 c0 -26 4 -31 36 -37 20 -3 39 -4 42 -1 3 3 0 6 -7 6 -7 0
-26 14 -42 31 l-29 31 0 -30z"/>
<path d="M2230 2810 c0 -23 5 -29 32 -34 17 -3 32 -5 33 -4 2 2 -13 17 -31 34
l-34 31 0 -27z"/>
<path d="M1041 2761 c-7 -11 -28 -30 -49 -40 -38 -21 -28 -26 26 -15 23 5 31
13 36 37 8 37 1 46 -13 18z"/>
<path d="M2495 2770 c-3 -5 1 -10 10 -10 9 0 13 5 10 10 -3 6 -8 10 -10 10 -2
0 -7 -4 -10 -10z"/>
<path d="M2318 2763 c7 -3 16 -2 19 1 4 3 -2 6 -13 5 -11 0 -14 -3 -6 -6z"/>
<path d="M1435 2750 c-3 -5 1 -10 9 -10 9 0 16 5 16 10 0 6 -4 10 -9 10 -6 0
-13 -4 -16 -10z"/>
<path d="M2865 2750 c-3 -5 1 -10 10 -10 9 0 13 5 10 10 -3 6 -8 10 -10 10 -2
0 -7 -4 -10 -10z"/>
<path d="M1115 2730 c-3 -5 1 -10 10 -10 9 0 13 5 10 10 -3 6 -8 10 -10 10 -2
0 -7 -4 -10 -10z"/>
<path d="M3748 2679 c-10 -16 -25 -29 -34 -29 -32 0 -5 -13 41 -20 25 -4 45
-6 45 -5 0 2 -8 21 -18 43 l-18 40 -16 -29z"/>
</g>
</svg>
